<mxfile host="app.diagrams.net" agent="Mozilla/5.0 (Windows NT 10.0; Win64; x64; rv:131.0) Gecko/20100101 Firefox/131.0" version="24.8.3">
  <diagram name="Page-1" id="nlowDMJz7bNjnqrSoiVT">
    <mxGraphModel dx="913" dy="570" grid="1" gridSize="10" guides="1" tooltips="1" connect="1" arrows="1" fold="1" page="1" pageScale="1" pageWidth="850" pageHeight="1100" math="0" shadow="0">
      <root>
        <mxCell id="0" />
        <mxCell id="1" parent="0" />
        <mxCell id="FOE4Kl_9NEUnPLxl16VO-1" value="" style="rounded=0;whiteSpace=wrap;html=1;fillColor=#000000;strokeColor=#4D4D4D;" vertex="1" parent="1">
          <mxGeometry x="100" y="130" width="20" height="310" as="geometry" />
        </mxCell>
        <mxCell id="FOE4Kl_9NEUnPLxl16VO-2" value="" style="rounded=0;whiteSpace=wrap;html=1;fillColor=#000000;strokeColor=#4D4D4D;" vertex="1" parent="1">
          <mxGeometry x="120" y="420" width="40" height="20" as="geometry" />
        </mxCell>
        <mxCell id="FOE4Kl_9NEUnPLxl16VO-3" value="" style="rounded=0;whiteSpace=wrap;html=1;fillColor=#000000;strokeColor=#4D4D4D;" vertex="1" parent="1">
          <mxGeometry x="200" y="110" width="20" height="310" as="geometry" />
        </mxCell>
        <mxCell id="FOE4Kl_9NEUnPLxl16VO-4" value="" style="rounded=0;whiteSpace=wrap;html=1;fillColor=#000000;strokeColor=#4D4D4D;" vertex="1" parent="1">
          <mxGeometry x="30" y="380" width="70" height="20" as="geometry" />
        </mxCell>
        <mxCell id="FOE4Kl_9NEUnPLxl16VO-18" value="" style="rounded=0;whiteSpace=wrap;html=1;fillColor=#000000;strokeColor=#4D4D4D;" vertex="1" parent="1">
          <mxGeometry x="160" y="130" width="20" height="310" as="geometry" />
        </mxCell>
        <mxCell id="FOE4Kl_9NEUnPLxl16VO-19" value="" style="rounded=0;whiteSpace=wrap;html=1;fillColor=#000000;strokeColor=#4D4D4D;" vertex="1" parent="1">
          <mxGeometry x="260" y="110" width="20" height="310" as="geometry" />
        </mxCell>
        <mxCell id="FOE4Kl_9NEUnPLxl16VO-20" value="" style="rounded=0;whiteSpace=wrap;html=1;fillColor=#000000;strokeColor=#4D4D4D;" vertex="1" parent="1">
          <mxGeometry x="220" y="110" width="40" height="20" as="geometry" />
        </mxCell>
        <mxCell id="FOE4Kl_9NEUnPLxl16VO-21" value="" style="rounded=0;whiteSpace=wrap;html=1;fillColor=#000000;strokeColor=#4D4D4D;" vertex="1" parent="1">
          <mxGeometry x="310" y="130" width="20" height="310" as="geometry" />
        </mxCell>
        <mxCell id="FOE4Kl_9NEUnPLxl16VO-22" value="" style="rounded=0;whiteSpace=wrap;html=1;fillColor=#000000;strokeColor=#4D4D4D;" vertex="1" parent="1">
          <mxGeometry x="330" y="420" width="40" height="20" as="geometry" />
        </mxCell>
        <mxCell id="FOE4Kl_9NEUnPLxl16VO-23" value="" style="rounded=0;whiteSpace=wrap;html=1;fillColor=#000000;strokeColor=#4D4D4D;" vertex="1" parent="1">
          <mxGeometry x="430" y="110" width="20" height="310" as="geometry" />
        </mxCell>
        <mxCell id="FOE4Kl_9NEUnPLxl16VO-24" value="" style="rounded=0;whiteSpace=wrap;html=1;fillColor=#000000;strokeColor=#4D4D4D;" vertex="1" parent="1">
          <mxGeometry x="370" y="130" width="20" height="310" as="geometry" />
        </mxCell>
        <mxCell id="FOE4Kl_9NEUnPLxl16VO-25" value="" style="rounded=0;whiteSpace=wrap;html=1;fillColor=#000000;strokeColor=#4D4D4D;" vertex="1" parent="1">
          <mxGeometry x="450" y="110" width="40" height="20" as="geometry" />
        </mxCell>
        <mxCell id="FOE4Kl_9NEUnPLxl16VO-26" value="" style="rounded=0;whiteSpace=wrap;html=1;fillColor=#000000;strokeColor=#4D4D4D;" vertex="1" parent="1">
          <mxGeometry x="490" y="110" width="20" height="310" as="geometry" />
        </mxCell>
        <mxCell id="FOE4Kl_9NEUnPLxl16VO-27" value="" style="rounded=0;whiteSpace=wrap;html=1;fillColor=#000000;strokeColor=#4D4D4D;" vertex="1" parent="1">
          <mxGeometry x="820" y="130" width="20" height="310" as="geometry" />
        </mxCell>
        <mxCell id="FOE4Kl_9NEUnPLxl16VO-28" value="" style="rounded=0;whiteSpace=wrap;html=1;fillColor=#000000;strokeColor=#4D4D4D;" vertex="1" parent="1">
          <mxGeometry x="560" y="420" width="50" height="20" as="geometry" />
        </mxCell>
        <mxCell id="FOE4Kl_9NEUnPLxl16VO-29" value="" style="rounded=0;whiteSpace=wrap;html=1;fillColor=#000000;strokeColor=#4D4D4D;" vertex="1" parent="1">
          <mxGeometry x="610" y="130" width="20" height="310" as="geometry" />
        </mxCell>
        <mxCell id="FOE4Kl_9NEUnPLxl16VO-30" value="" style="rounded=0;whiteSpace=wrap;html=1;fillColor=#000000;strokeColor=#4D4D4D;" vertex="1" parent="1">
          <mxGeometry x="660" y="110" width="20" height="310" as="geometry" />
        </mxCell>
        <mxCell id="FOE4Kl_9NEUnPLxl16VO-31" value="" style="rounded=0;whiteSpace=wrap;html=1;fillColor=#000000;strokeColor=#4D4D4D;" vertex="1" parent="1">
          <mxGeometry x="680" y="110" width="40" height="20" as="geometry" />
        </mxCell>
        <mxCell id="FOE4Kl_9NEUnPLxl16VO-32" value="" style="rounded=0;whiteSpace=wrap;html=1;fillColor=#000000;strokeColor=#4D4D4D;" vertex="1" parent="1">
          <mxGeometry x="720" y="110" width="20" height="310" as="geometry" />
        </mxCell>
        <mxCell id="FOE4Kl_9NEUnPLxl16VO-33" value="" style="rounded=0;whiteSpace=wrap;html=1;fillColor=#000000;strokeColor=#4D4D4D;" vertex="1" parent="1">
          <mxGeometry x="760" y="130" width="20" height="310" as="geometry" />
        </mxCell>
        <mxCell id="FOE4Kl_9NEUnPLxl16VO-34" value="" style="rounded=0;whiteSpace=wrap;html=1;fillColor=#000000;strokeColor=#4D4D4D;" vertex="1" parent="1">
          <mxGeometry x="780" y="420" width="40" height="20" as="geometry" />
        </mxCell>
        <mxCell id="FOE4Kl_9NEUnPLxl16VO-36" value="" style="rounded=0;whiteSpace=wrap;html=1;fillColor=#000000;strokeColor=#4D4D4D;" vertex="1" parent="1">
          <mxGeometry x="550" y="130" width="20" height="310" as="geometry" />
        </mxCell>
        <mxCell id="FOE4Kl_9NEUnPLxl16VO-37" value="" style="rounded=0;whiteSpace=wrap;html=1;fillColor=#000000;strokeColor=#4D4D4D;" vertex="1" parent="1">
          <mxGeometry x="840" y="380" width="70" height="20" as="geometry" />
        </mxCell>
        <mxCell id="FOE4Kl_9NEUnPLxl16VO-41" value="" style="shape=crossbar;whiteSpace=wrap;html=1;rounded=1;" vertex="1" parent="1">
          <mxGeometry x="310" y="100" width="20" height="20" as="geometry" />
        </mxCell>
        <mxCell id="FOE4Kl_9NEUnPLxl16VO-42" value="1 mm" style="text;html=1;align=center;verticalAlign=middle;whiteSpace=wrap;rounded=0;" vertex="1" parent="1">
          <mxGeometry x="290" y="70" width="60" height="30" as="geometry" />
        </mxCell>
        <mxCell id="FOE4Kl_9NEUnPLxl16VO-45" value="" style="shape=crossbar;whiteSpace=wrap;html=1;rounded=1;" vertex="1" parent="1">
          <mxGeometry x="120" y="100" width="40" height="20" as="geometry" />
        </mxCell>
        <mxCell id="FOE4Kl_9NEUnPLxl16VO-46" value="2 mm" style="text;html=1;align=center;verticalAlign=middle;whiteSpace=wrap;rounded=0;" vertex="1" parent="1">
          <mxGeometry x="110" y="70" width="60" height="30" as="geometry" />
        </mxCell>
        <mxCell id="FOE4Kl_9NEUnPLxl16VO-48" value="" style="shape=crossbar;whiteSpace=wrap;html=1;rounded=1;" vertex="1" parent="1">
          <mxGeometry x="180" y="450" width="20" height="20" as="geometry" />
        </mxCell>
        <mxCell id="FOE4Kl_9NEUnPLxl16VO-49" value="s1" style="text;html=1;align=center;verticalAlign=middle;whiteSpace=wrap;rounded=0;" vertex="1" parent="1">
          <mxGeometry x="160" y="460" width="60" height="30" as="geometry" />
        </mxCell>
        <mxCell id="FOE4Kl_9NEUnPLxl16VO-50" value="" style="shape=crossbar;whiteSpace=wrap;html=1;rounded=1;" vertex="1" parent="1">
          <mxGeometry x="740" y="450" width="20" height="20" as="geometry" />
        </mxCell>
        <mxCell id="FOE4Kl_9NEUnPLxl16VO-51" value="s1" style="text;html=1;align=center;verticalAlign=middle;whiteSpace=wrap;rounded=0;" vertex="1" parent="1">
          <mxGeometry x="720" y="460" width="60" height="30" as="geometry" />
        </mxCell>
        <mxCell id="FOE4Kl_9NEUnPLxl16VO-53" value="" style="shape=crossbar;whiteSpace=wrap;html=1;rounded=1;" vertex="1" parent="1">
          <mxGeometry x="280" y="450" width="30" height="20" as="geometry" />
        </mxCell>
        <mxCell id="FOE4Kl_9NEUnPLxl16VO-54" value="s2" style="text;html=1;align=center;verticalAlign=middle;whiteSpace=wrap;rounded=0;" vertex="1" parent="1">
          <mxGeometry x="270" y="460" width="50" height="30" as="geometry" />
        </mxCell>
        <mxCell id="FOE4Kl_9NEUnPLxl16VO-55" value="" style="shape=crossbar;whiteSpace=wrap;html=1;rounded=1;" vertex="1" parent="1">
          <mxGeometry x="630" y="450" width="30" height="20" as="geometry" />
        </mxCell>
        <mxCell id="FOE4Kl_9NEUnPLxl16VO-56" value="s2" style="text;html=1;align=center;verticalAlign=middle;whiteSpace=wrap;rounded=0;" vertex="1" parent="1">
          <mxGeometry x="620" y="460" width="50" height="30" as="geometry" />
        </mxCell>
        <mxCell id="FOE4Kl_9NEUnPLxl16VO-57" value="" style="shape=crossbar;whiteSpace=wrap;html=1;rounded=1;" vertex="1" parent="1">
          <mxGeometry x="390" y="455" width="40" height="20" as="geometry" />
        </mxCell>
        <mxCell id="FOE4Kl_9NEUnPLxl16VO-58" value="s3" style="text;html=1;align=center;verticalAlign=middle;whiteSpace=wrap;rounded=0;" vertex="1" parent="1">
          <mxGeometry x="385" y="460" width="50" height="30" as="geometry" />
        </mxCell>
        <mxCell id="FOE4Kl_9NEUnPLxl16VO-59" value="" style="shape=crossbar;whiteSpace=wrap;html=1;rounded=1;" vertex="1" parent="1">
          <mxGeometry x="510" y="455" width="40" height="20" as="geometry" />
        </mxCell>
        <mxCell id="FOE4Kl_9NEUnPLxl16VO-60" value="s3" style="text;html=1;align=center;verticalAlign=middle;whiteSpace=wrap;rounded=0;" vertex="1" parent="1">
          <mxGeometry x="505" y="460" width="50" height="30" as="geometry" />
        </mxCell>
      </root>
    </mxGraphModel>
  </diagram>
</mxfile>
